# xmcd CD database file
#
# Track frame offsets:
#	150
#	6525
#	18642
#	30930
#	42612
#	56015
#	66665
#	76322
#	89892
#	100085
#	112627
#	128357
#	140065
#	146492
#	164910
#	181500
#	195405
#	215160
#	231275
#	245697
#	263192
#	277322
#
# Disc length: 3929 seconds
#
# Revision: 3
# Processed by: cddbd v1.5.2PL0 Copyright (c) Steve Scherf et al.
# Submitted via: jetAudio 7
#
DISCID=4d0f5716
DTITLE=Hearts And Flowers - Now Is The Time For
DYEAR=1900
DGENRE=country
TTITLE0=Now Is The Time
TTITLE1=Save Some Time
TTITLE2=Try For The Sun
TTITLE3=Rain, Rain
TTITLE4=The View From Ward Three
TTITLE5=Rock and Roll Gypsies
TTITLE6=Reason To Believe
TTITLE7=Please
TTITLE8=1-2-3 Rhyme In Carnivour Thyme
TTITLE9=I'm A Lonesome Fugitive
TTITLE10=Road To Nowhere
TTITLE11=10,000 Sunsets
TTITLE12=Now Is The Time For Hearts And Flowers
TTITLE13=Highway In The Wind
TTITLE14=Second-Hand Sundown Queen
TTITLE15=She Sang Rymns Out Of Tune
TTITLE16=Ode To A Tin Angel
TTITLE17=When I Was A Cowboy
TTITLE18=Legend Of Ol' Tenbrookes
TTITLE19=Colour Your Daytime
TTITLE20=Two Little Boys
TTITLE21=Extra, Extra-Rock and Roll Gypsies
EXTD=
EXTT0=
EXTT1=
EXTT2=
EXTT3=
EXTT4=
EXTT5=
EXTT6=
EXTT7=
EXTT8=
EXTT9=
EXTT10=
EXTT11=
EXTT12=
EXTT13=
EXTT14=
EXTT15=
EXTT16=
EXTT17=
EXTT18=
EXTT19=
EXTT20=
EXTT21=
PLAYORDER=
